<svg width="75" height="85" viewBox="0 0 75 85" fill="none" xmlns="http://www.w3.org/2000/svg">
<g id="Iconly/Bold/Arrow---Left-Circle">
<g id="Arrow---Left-Circle">
<path id="Vector" d="M37.1719 0.40625L38.2118 0.422441C58.2505 1.04711 74.3438 19.6686 74.3438 42.5229C74.3438 65.7292 57.6908 84.6396 37.1719 84.6396C16.6902 84.6396 0 65.7292 0 42.5229C0 19.2745 16.6902 0.40625 37.1719 0.40625ZM44.5319 25.6762C43.4167 24.4127 41.6697 24.4127 40.5917 25.6762L27.6187 40.2907C27.0983 40.8804 26.8009 41.6806 26.8009 42.5229C26.8009 43.3652 27.0983 44.1654 27.6187 44.7551L40.5917 59.3696C41.1121 60.0013 41.8184 60.2961 42.5246 60.2961C43.2681 60.2961 43.9743 60.0013 44.5319 59.3696C45.6099 58.1061 45.6099 56.1266 44.4947 54.9052L33.529 42.5229L44.4947 30.1406C45.6099 28.9192 45.6099 26.8976 44.5319 25.6762Z" fill="#0DAE4F"/>
</g>
</g>
</svg>
