<svg width="75" height="85" viewBox="0 0 75 85" fill="none" xmlns="http://www.w3.org/2000/svg">
<g id="Iconly/Bold/Arrow---Left-Circle">
<g id="Arrow---Left-Circle">
<path id="Vector" d="M37.8281 84.4668L36.7882 84.4506C16.7495 83.8259 0.656247 65.2045 0.656247 42.3501C0.656247 19.1439 17.3092 0.233496 37.8281 0.233496C58.3098 0.233496 75 19.1439 75 42.3501C75 65.5985 58.3098 84.4668 37.8281 84.4668ZM30.4681 59.1968C31.5833 60.4603 33.3303 60.4603 34.4083 59.1968L47.3813 44.5823C47.9017 43.9927 48.1991 43.1925 48.1991 42.3501C48.1991 41.5078 47.9017 40.7076 47.3813 40.118L34.4083 25.5035C33.8879 24.8717 33.1816 24.5769 32.4754 24.5769C31.7319 24.5769 31.0257 24.8717 30.4681 25.5035C29.3901 26.767 29.3901 28.7465 30.5053 29.9679L41.471 42.3501L30.5053 54.7324C29.3901 55.9538 29.3901 57.9754 30.4681 59.1968Z" fill="#0DAE4F"/>
</g>
</g>
</svg>
