<svg width="40" height="40" viewBox="0 0 40 40" fill="none" xmlns="http://www.w3.org/2000/svg">
<g id="bx:heart">
<path id="Vector" d="M20 7.65819C18.1841 5.98836 15.8071 5.0616 13.34 5.06152C12.0343 5.06288 10.7417 5.32246 9.53661 5.8253C8.33155 6.32815 7.23783 7.06435 6.31838 7.99152C2.39672 11.9299 2.39838 18.0899 6.32172 22.0115L18.5417 34.2315C18.8251 34.7299 19.3717 35.0515 20 35.0515C20.258 35.049 20.5119 34.986 20.7411 34.8677C20.9704 34.7493 21.1686 34.5788 21.32 34.3699L33.6784 22.0115C37.6017 18.0882 37.6017 11.9299 33.6751 7.98486C32.7561 7.05938 31.6632 6.32468 30.4593 5.823C29.2555 5.32131 27.9643 5.06252 26.6601 5.06152C24.1931 5.06193 21.8162 5.98864 20 7.65819ZM31.3184 10.3415C33.9234 12.9599 33.9251 17.0499 31.3217 19.6549L20 30.9765L8.67838 19.6549C6.07505 17.0499 6.07672 12.9599 8.67505 10.3482C9.94172 9.08819 11.5984 8.39486 13.34 8.39486C15.0817 8.39486 16.7317 9.08819 17.9884 10.3449L18.8217 11.1782C18.9764 11.3331 19.16 11.456 19.3622 11.5398C19.5644 11.6237 19.7812 11.6669 20 11.6669C20.2189 11.6669 20.4357 11.6237 20.6379 11.5398C20.8401 11.456 21.0237 11.3331 21.1784 11.1782L22.0117 10.3449C24.5317 7.82986 28.8017 7.83652 31.3184 10.3415Z" fill="white"/>
</g>
</svg>
